<svg t="1612839984610" class="icon" viewBox="0 0 1024 1024" version="1.1" xmlns="http://www.w3.org/2000/svg" p-id="3270" width="200" height="200"><path d="M825.6 554.667c-64 0-121.6-38.4-155.733-89.6-36.267 51.2-93.867 89.6-157.867 89.6s-121.6-38.4-155.733-89.6c-36.267 51.2-91.734 89.6-157.867 89.6-108.8 0-198.4-89.6-198.4-198.4v-8.534L151.467 0h721.066L1024 345.6v8.533c0 110.934-89.6 200.534-198.4 200.534zM625.067 334.933H710.4c0 61.867 51.2 134.4 113.067 134.4 59.733 0 108.8-46.933 113.066-104.533L817.067 85.333H206.933L85.333 364.8C89.6 422.4 138.667 469.333 198.4 469.333c64 0 113.067-74.666 113.067-134.4H396.8c0 61.867 51.2 134.4 113.067 134.4 66.133 0 115.2-74.666 115.2-134.4z m185.6 686.934H213.333c-83.2 0-149.333-64-149.333-142.934V595.2h85.333v283.733c0 32 27.734 57.6 64 57.6h597.334c34.133 0 64-25.6 64-57.6V595.2H960v283.733c0 78.934-66.133 142.934-149.333 142.934z" p-id="3271"></path></svg>